<?xml version="1.0" encoding="utf-8"?>
<!-- Generator: Adobe Illustrator 26.1.0, SVG Export Plug-In . SVG Version: 6.00 Build 0)  -->
<svg version="1.1" id="Layer_1" xmlns="http://www.w3.org/2000/svg" xmlns:xlink="http://www.w3.org/1999/xlink" x="0px" y="0px"
	 viewBox="0 0 512 512" style="enable-background:new 0 0 512 512;" xml:space="preserve">
<style type="text/css">
	.st0{fill:#333753;}
	.st1{fill:#F4AC4C;}
	.st2{font-family:'LifeCraft';}
	.st3{font-size:366.0695px;}
</style>
<path class="st0" d="M436.2,220.9c-2.4,0.2-4.9,0-7.3-0.6c-2.6-0.6-5-1.7-7.2-3.3c-4.6-2.8-8.8-6.8-10.8-11.9c-1.1-2.9-1-6,0.3-8.9
	c0.9-2.1,2.5-3.7,4.3-5c0.4-0.4,0.8-0.8,1.2-1.3c0.6-2.1,1.5-4.1,3-5.7c1.1-1.2,2.6-2,4.1-2.6C398.4,124.2,344.3,82.3,279.6,74
	c-1.4,3.6-3.6,7.1-6.6,9.6c-1,1.9-2.3,3.7-3.5,5.2c-2.7,3.4-7.4,7.5-12.1,5.5c-1.3-0.6-2.3-1.5-2.7-2.6c-4.6,0.3-9-1.4-12.3-4.7
	c-3.3-3.2-5.4-7.4-7.3-11.5c-0.3-0.6-0.4-1.1-0.5-1.7c-63.8,7.4-117.7,47.5-144.3,103.2c0.3,1.6,0.6,3.2,0.9,4.8
	c1.5,0,2.9,0.6,3.7,1.9c2.4,4,4.7,8.1,7.2,12.2c1.2,2,0.4,4.4-1.5,5.6c-0.6,0.4-1.2,0.5-1.9,0.5c-0.2,1.3-0.7,2.6-1.6,3.8
	c-0.1,1.4-0.4,2.7-1.1,3.9c-0.7,1.3-1.8,2.4-3.1,3.1c0,0,0,0,0,0c-1.1,2.4-3.1,4.3-5.8,5.4c-2.4,1-5,1.1-7.5,0.9
	c-0.4,0-0.9,0-1.3-0.1c-0.7-0.1-1.4-0.2-2.1-0.3c-2.5,12.1-3.9,24.6-3.9,37.4c0,54,23.4,102.5,60.5,136.1c0,0,0,0,0,0
	c3.7-5.7,10.8-10.7,17.8-10.3c5-1.6,10.5-2.1,14.7,0.9c4.9,3.5,5.5,9.6,4.1,15.1c1,2.5,1.4,5.3,1.5,7.9c0.2,3.2,0,6.8-1.2,9.8
	c-0.3,0.8-0.8,1.4-1.4,1.9c26.1,14.2,55.9,22.4,87.6,22.4c33.4,0,64.7-9,91.7-24.6c-1.8-1.7-3.1-3.9-3.8-6.5c-0.1-0.3-0.1-0.6-0.2-1
	c0-0.2-0.1-0.3-0.1-0.4c0-0.1,0-0.2,0-0.3c-0.4-2.2-0.5-4.4-0.3-6.6c0.1-3.4,0.7-6.7,2-9.7c0.8-2.2,2-4.2,3.6-5.9
	c6.2-6.2,15.7-4,23.2-1.8c1.2,0.3,2,1.2,2.5,2.2c0.9,0.5,1.8,1.1,2.6,1.8c1.3,1.2,2.3,2.7,3.3,4.2c36.3-33.5,59.1-81.6,59.1-134.9
	C439.6,244,438.4,232.3,436.2,220.9z"/>
<g>
	<text transform="matrix(1.0691 0 0 1 107.8008 383.4883)" class="st1 st2 st3">W</text>
</g>
<path class="st1" d="M496.7,250L476,237.6c-0.2-2.2-0.4-4.4-0.6-6.5l17.8-16.2c1.8-1.6,2.6-4.1,2.2-6.5c-0.5-2.4-2.2-4.4-4.5-5.2
	l-22.7-8.1c-0.6-2.1-1.2-4.2-1.9-6.3l14.3-19.3c1.5-2,1.8-4.6,0.8-6.8c-0.9-2.3-3-3.9-5.4-4.2l-23.9-3.6c-1-1.9-2-3.8-3-5.7
	l10.3-21.8c1-2.2,0.9-4.8-0.5-6.9c-1.4-2-3.7-3.2-6.1-3.1l-24.2,1.2c-1.3-1.7-2.7-3.3-4.1-4.9l5.9-23.5c0.6-2.4-0.1-4.9-1.8-6.6
	c-1.7-1.7-4.3-2.4-6.6-1.8l-23.5,5.9c-1.6-1.4-3.3-2.7-4.9-4.1l1.2-24.2c0.1-2.4-1.1-4.8-3.1-6.1c-2-1.4-4.6-1.6-6.9-0.5l-21.8,10.3
	c-1.9-1-3.8-2.1-5.7-3l-3.6-23.9c-0.4-2.4-2-4.5-4.2-5.4c-2.3-0.9-4.9-0.6-6.8,0.8l-19.3,14.3c-2.1-0.7-4.2-1.3-6.3-1.9l-8.1-22.7
	c-0.8-2.3-2.8-4-5.2-4.5c-2.4-0.5-4.9,0.3-6.5,2.2l-16.2,17.8c-2.2-0.2-4.3-0.4-6.5-0.6L262,15.3c-1.3-2.1-3.5-3.4-6-3.4
	s-4.7,1.3-6,3.4L237.6,36c-2.2,0.2-4.4,0.4-6.5,0.6l-16.2-17.8c-1.6-1.8-4.1-2.6-6.5-2.2c-2.4,0.5-4.4,2.2-5.2,4.5L195,43.8
	c-2.1,0.6-4.2,1.2-6.3,1.9l-19.3-14.3c-2-1.5-4.6-1.8-6.8-0.8c-2.3,0.9-3.9,3-4.2,5.4l-3.6,23.9c-1.9,1-3.8,2-5.7,3l-21.8-10.3
	c-2.2-1-4.8-0.9-6.9,0.5c-2,1.4-3.2,3.7-3.1,6.1l1.2,24.2c-1.7,1.3-3.3,2.7-4.9,4.1L90,81.6c-2.4-0.6-4.9,0.1-6.6,1.8
	c-1.7,1.7-2.4,4.2-1.8,6.6l5.9,23.5c-1.4,1.6-2.7,3.3-4.1,4.9l-24.2-1.2c-2.5-0.1-4.8,1.1-6.1,3.1c-1.4,2-1.6,4.6-0.5,6.9l10.3,21.8
	c-1,1.9-2.1,3.8-3,5.7l-23.9,3.6c-2.4,0.4-4.5,2-5.4,4.2s-0.6,4.9,0.8,6.8l14.3,19.3c-0.7,2.1-1.3,4.2-1.9,6.3l-22.7,8.1
	c-2.3,0.8-4,2.8-4.5,5.2c-0.5,2.4,0.3,4.9,2.2,6.5l17.8,16.2c-0.2,2.2-0.4,4.3-0.6,6.5L15.3,250c-2.1,1.3-3.4,3.5-3.4,6
	s1.3,4.7,3.4,6L36,274.4c0.2,2.2,0.4,4.4,0.6,6.5l-17.8,16.2c-1.8,1.6-2.6,4.1-2.2,6.5c0.5,2.4,2.2,4.4,4.5,5.2l22.7,8.1
	c0.6,2.1,1.2,4.2,1.9,6.3l-14.3,19.3c-1.5,2-1.8,4.6-0.8,6.8c0.9,2.3,3,3.9,5.4,4.2l23.9,3.6c1,1.9,2,3.8,3,5.7l-10.3,21.8
	c-1,2.2-0.9,4.8,0.5,6.9c1.3,1.9,3.5,3.1,5.8,3.1c0.1,0,0.2,0,0.3,0l24.2-1.2c1.3,1.7,2.7,3.3,4.1,4.9L81.6,422
	c-0.6,2.4,0.1,4.9,1.8,6.6c1.3,1.3,3.1,2,4.9,2c0.6,0,1.1-0.1,1.7-0.2l23.5-5.9c1.6,1.4,3.3,2.7,4.9,4.1l-1.2,24.2
	c-0.1,2.4,1.1,4.8,3.1,6.1c1.2,0.8,2.5,1.2,3.9,1.2c1,0,2-0.2,3-0.7l21.8-10.3c1.9,1,3.8,2.1,5.7,3l3.6,23.9c0.4,2.4,2,4.5,4.2,5.4
	c0.9,0.4,1.8,0.5,2.7,0.5c1.5,0,2.9-0.5,4.2-1.4l19.3-14.3c2.1,0.7,4.2,1.3,6.3,1.9l8.1,22.7c0.8,2.3,2.8,4,5.2,4.5
	c0.5,0.1,0.9,0.1,1.4,0.1c1.9,0,3.8-0.8,5.2-2.3l16.2-17.8c2.2,0.2,4.3,0.4,6.5,0.6l12.4,20.7c1.3,2.1,3.5,3.4,6,3.4s4.7-1.3,6-3.4
	l12.4-20.7c2.2-0.2,4.4-0.4,6.5-0.6l16.2,17.8c1.3,1.5,3.2,2.3,5.2,2.3c0.4,0,0.9,0,1.4-0.1c2.4-0.5,4.4-2.2,5.2-4.5l8.1-22.7
	c2.1-0.6,4.2-1.2,6.3-1.9l19.3,14.3c1.2,0.9,2.7,1.4,4.2,1.4c0.9,0,1.8-0.2,2.7-0.5c2.3-0.9,3.9-3,4.2-5.4l3.6-23.9
	c1.9-1,3.8-2,5.7-3l21.8,10.3c0.9,0.4,2,0.7,3,0.7c1.4,0,2.7-0.4,3.9-1.2c2-1.4,3.2-3.7,3.1-6.1l-1.2-24.2c1.7-1.3,3.3-2.7,4.9-4.1
	l23.5,5.9c0.6,0.1,1.1,0.2,1.7,0.2c1.8,0,3.6-0.7,4.9-2c1.7-1.7,2.4-4.2,1.8-6.6l-5.9-23.5c1.4-1.6,2.7-3.3,4.1-4.9l24.2,1.2
	c0.1,0,0.2,0,0.3,0c2.3,0,4.5-1.2,5.8-3.1c1.4-2,1.6-4.6,0.5-6.9l-10.3-21.8c1.1-1.9,2.1-3.8,3-5.7l23.9-3.6c2.4-0.4,4.5-2,5.4-4.2
	c0.9-2.3,0.6-4.9-0.8-6.8l-14.3-19.3c0.7-2.1,1.3-4.2,1.9-6.3l22.7-8.1c2.3-0.8,4-2.8,4.5-5.2c0.5-2.4-0.3-4.9-2.2-6.5l-17.8-16.2
	c0.2-2.2,0.4-4.3,0.6-6.5l20.7-12.4c2.1-1.3,3.4-3.5,3.4-6S498.8,251.3,496.7,250z M256,56.7c8.7,0,15.7,7,15.7,15.7
	s-7,15.7-15.7,15.7c-8.7,0-15.7-7-15.7-15.7S247.3,56.7,256,56.7z M65,200.6c0-8.7,7-15.7,15.7-15.7c8.7,0,15.7,7,15.7,15.7
	s-7,15.7-15.7,15.7C72,216.3,65,209.3,65,200.6z M152.2,414.9c-8.7,0-15.7-7-15.7-15.7c0-8.7,7-15.7,15.7-15.7
	c8.7,0,15.7,7,15.7,15.7C167.9,407.8,160.9,414.9,152.2,414.9z M360.2,414.9c-8.7,0-15.7-7-15.7-15.7c0-8.7,7-15.7,15.7-15.7
	c8.7,0,15.7,7,15.7,15.7C375.8,407.8,368.8,414.9,360.2,414.9z M385.9,379l-32.1-5.1c-7.6-1.2-14.8,4-16,11.6l-5.1,32.2
	C309.5,428.8,283.5,435,256,435c-27.5,0-53.5-6.2-76.8-17.3l-5.1-32.2c-0.6-3.7-2.6-6.9-5.6-9.1c-3-2.2-6.7-3.1-10.4-2.5l-32.1,5.1
	C95.7,346.9,77,303.6,77,256c0-7.8,0.6-15.5,1.5-23.1l29-14.8c6.9-3.5,9.6-11.9,6.1-18.8l-14.8-29c25.4-46.3,70.6-80.3,124.2-90.3
	l23.1,23.1c2.7,2.7,6.3,4.1,9.9,4.1c3.6,0,7.1-1.4,9.9-4.1l23.1-23.1c53.6,10,98.9,43.9,124.2,90.3l-14.8,29
	c-3.5,6.9-0.8,15.3,6.1,18.8l29,14.8c1,7.6,1.5,15.2,1.5,23.1C435,303.6,416.3,346.9,385.9,379z M431.3,216.3
	c-8.7,0-15.7-7-15.7-15.7s7-15.7,15.7-15.7c8.7,0,15.7,7,15.7,15.7S440,216.3,431.3,216.3z"/>
</svg>
